<svg xmlns="http://www.w3.org/2000/svg" viewBox="0 0 358.2 336.39"><defs><style>.cls-1{fill:#fff;}</style></defs><g id="圖層_2" data-name="圖層 2"><g id="Layer_1" data-name="Layer 1"><path class="cls-1" d="M324.21,105c.15-1.63.23-3.25.23-4.86a55.32,55.32,0,0,0-55.25-55.23,54.64,54.64,0,0,0-29,8.27C234.8,21.78,206-1.76,172.24.1c-32.1,1.6-57.52,25.08-61.69,55.22a53.18,53.18,0,0,0-17.87-3.11,55.31,55.31,0,0,0-55.24,55.24c0,.65,0,1.3.09,2C22.09,113.65,0,122.58,0,154.12c0,23.44,19.51,43.56,46,44.82l8.13-12.54c-1,0-2.05,0-2.81.09l-2,0c-20.13,0-36.52-14.55-36.54-32.44,0-21.3,11.61-28.21,33.09-33.54l4.83-1.84.14-4.88-.24-2.62a27.66,27.66,0,0,1-.36-3.77A42.43,42.43,0,0,1,92.68,65.07a41.65,41.65,0,0,1,20.58,5.57L123,76.11l-.2-11.19c-.48-27.72,21.52-50.56,50.06-52l2.79-.08c28.06,0,51.11,21.28,52.46,48.48.05,1,0,1.93-.13,4.42l-.59,16.52L239,70.49a42.36,42.36,0,0,1,72.59,29.68,43,43,0,0,1-.86,8.47l-1.32,6.46,6.51,1.13c16.54,2.9,28.62,15.73,29.39,31.18s-9.91,33.16-26.15,38.27l4.29,12c20.47-6.8,35.85-28,34.69-50.85C357.18,127.28,343.56,110.85,324.21,105Z"/><path class="cls-1" d="M114.89,248.94h0C93.6,220.38,95,171.17,94,186.93c-2.66,41.14-18.87,62-18.87,62h0A18,18,0,0,0,73,257.36c0,10.9,9.86,19.73,22,19.73s22-8.83,22-19.73A18.14,18.14,0,0,0,114.89,248.94Z"/><path class="cls-1" d="M182.63,210.19h0C164,185.24,165.27,142.28,164.36,156,162,192,147.88,210.19,147.88,210.19h0a15.65,15.65,0,0,0-1.85,7.35c0,9.51,8.61,17.22,19.24,17.22s19.22-7.71,19.22-17.22A15.78,15.78,0,0,0,182.63,210.19Z"/><path class="cls-1" d="M163.35,302.79h0c-14.48-19.37-13.52-52.75-14.21-42.06-1.81,27.89-12.8,42.06-12.8,42.06h0a12.35,12.35,0,0,0-1.45,5.72c0,7.38,6.69,13.38,14.94,13.38s14.95-6,14.95-13.38A12.12,12.12,0,0,0,163.35,302.79Z"/><path class="cls-1" d="M127,162.66h0c-10.72-14.36-10-39.11-10.52-31.19-1.35,20.68-9.49,31.19-9.49,31.19h0a8.91,8.91,0,0,0-1.07,4.23c0,5.49,5,9.93,11.07,9.93s11.07-4.44,11.07-9.93A9,9,0,0,0,127,162.66Z"/><path class="cls-1" d="M241.27,183.88a14.52,14.52,0,1,1-14.52-14.5A14.52,14.52,0,0,1,241.27,183.88Z"/><path class="cls-1" d="M304,228.07a14.51,14.51,0,1,1-14.52-14.5A14.51,14.51,0,0,1,304,228.07Z"/><path class="cls-1" d="M249.8,321.87a14.51,14.51,0,1,1-14.52-14.5A14.51,14.51,0,0,1,249.8,321.87Z"/><path class="cls-1" d="M295.85,178.3a10.46,10.46,0,1,1-10.46-10.45A10.46,10.46,0,0,1,295.85,178.3Z"/><path class="cls-1" d="M251.39,248.13a13.22,13.22,0,1,1-13.22-13.21A13.24,13.24,0,0,1,251.39,248.13Z"/><path class="cls-1" d="M302.67,290.26a13.22,13.22,0,1,1-13.22-13.2A13.23,13.23,0,0,1,302.67,290.26Z"/></g></g></svg>