<svg xmlns="http://www.w3.org/2000/svg" viewBox="0 0 252.63 244.65"><defs><style>.cls-1{fill:#fff;}</style></defs><g id="圖層_2" data-name="圖層 2"><g id="Layer_1" data-name="Layer 1"><path class="cls-1" d="M183.33,126.77a56.59,56.59,0,1,1-56.59-56.59A56.61,56.61,0,0,1,183.33,126.77Z"/><path class="cls-1" d="M78.48,72.77a4.32,4.32,0,0,1-.38,6.07h0a4.33,4.33,0,0,1-6.1-.42L39.94,41.83a4.31,4.31,0,0,1,.42-6.08h0a4.33,4.33,0,0,1,6.09.4Z"/><path class="cls-1" d="M131.24,53A4.31,4.31,0,0,1,127,57.28h0A4.3,4.3,0,0,1,122.61,53l-.34-48.65A4.34,4.34,0,0,1,126.53,0h0a4.34,4.34,0,0,1,4.35,4.3Z"/><path class="cls-1" d="M53.13,115a4.33,4.33,0,0,1,4,4.63h0a4.32,4.32,0,0,1-4.66,4L4,119.58A4.24,4.24,0,0,1,0,115H0a4.31,4.31,0,0,1,4.62-4Z"/><path class="cls-1" d="M60.94,161a4.3,4.3,0,0,1,6,1.34h0a4.29,4.29,0,0,1-1.33,5.94l-41.13,26A4.32,4.32,0,0,1,18.48,193h0A4.3,4.3,0,0,1,19.84,187Z"/><path class="cls-1" d="M97.7,193.1a4.34,4.34,0,0,1,5.56-2.52h0a4.36,4.36,0,0,1,2.52,5.56L88.63,241.68a4.3,4.3,0,0,1-5.53,2.51h0a4.3,4.3,0,0,1-2.54-5.55Z"/><path class="cls-1" d="M190.62,170.18a4.33,4.33,0,0,1-1.8-5.84h0a4.3,4.3,0,0,1,5.83-1.79l43,22.64a4.25,4.25,0,0,1,1.8,5.8h0a4.27,4.27,0,0,1-5.81,1.82Z"/><path class="cls-1" d="M200.49,117.65a4.31,4.31,0,0,1-4.78-3.77h0a4.32,4.32,0,0,1,3.79-4.77l48.3-5.68a4.33,4.33,0,0,1,4.8,3.8h0a4.33,4.33,0,0,1-3.79,4.78Z"/><path class="cls-1" d="M168.79,238.91a4.32,4.32,0,0,1-2.64,5.5h0a4.32,4.32,0,0,1-5.48-2.64l-16.19-45.9a4.26,4.26,0,0,1,2.64-5.47h0a4.28,4.28,0,0,1,5.5,2.61Z"/><path class="cls-1" d="M176.74,74a4.31,4.31,0,0,1-6,.76h0a4.3,4.3,0,0,1-.75-6l30-38.35a4.31,4.31,0,0,1,6.06-.74h0a4.34,4.34,0,0,1,.72,6Z"/></g></g></svg>